<?xml version="1.0" encoding="iso-8859-1"?>
<!-- Generator: Adobe Illustrator 19.0.0, SVG Export Plug-In . SVG Version: 6.00 Build 0)  -->
<svg version="1.1" id="Capa_1" xmlns="http://www.w3.org/2000/svg" xmlns:xlink="http://www.w3.org/1999/xlink" x="0px" y="0px"
	 viewBox="0 0 511.995 511.995" style="enable-background:new 0 0 511.995 511.995;" xml:space="preserve">
<path style="fill:#2196F3;" d="M372.16,244.446L289.824,93.47l39.04-60.384c2.176-3.36,2.4-7.712,0.512-11.296
	c-1.824-3.552-5.44-5.792-9.376-5.792H192c-3.936,0-7.552,2.24-9.408,5.824s-1.632,7.904,0.544,11.264l39.04,60.384l-82.368,150.976
	C132.096,258.622,128,274.75,128,291.006c0,42.432,33.504,76.992,74.656,76.992h106.656c41.184,0,74.688-34.56,74.688-76.992
	C384,274.75,379.904,258.622,372.16,244.446z"/>
<path style="fill:#FFC107;" d="M298.656,103.998h-85.312c-5.888,0-10.656-4.928-10.656-11.008s4.768-11.008,10.656-11.008h85.344
	c5.888,0,10.656,4.928,10.656,11.008S304.576,103.998,298.656,103.998z"/>
<path style="fill:#2196F3;" d="M80,239.998H16c-8.832,0-16,7.168-16,16v224c0,8.832,7.168,16,16,16h64c8.832,0,16-7.168,16-16v-224
	C96,247.166,88.832,239.998,80,239.998z"/>
<path style="fill:#FFD54F;" d="M501.888,274.526c-16.256-20.96-46.464-24.704-67.328-8.416l-118.016,91.776
	c-8.448,6.56-18.816,10.112-29.472,10.112H176c44.192,0,80-35.808,80-80c0-8.832-7.168-16-16-16H96v96v96h212.992
	c17.792,0,35.072-5.92,49.12-16.864l135.36-105.28C514.4,325.598,518.144,295.454,501.888,274.526z"/>
<g>
</g>
<g>
</g>
<g>
</g>
<g>
</g>
<g>
</g>
<g>
</g>
<g>
</g>
<g>
</g>
<g>
</g>
<g>
</g>
<g>
</g>
<g>
</g>
<g>
</g>
<g>
</g>
<g>
</g>
</svg>
