<?xml version="1.0" encoding="utf-8"?>
<!-- Generator: Adobe Illustrator 25.0.1, SVG Export Plug-In . SVG Version: 6.00 Build 0)  -->
<svg version="1.1" id="Слой_1" xmlns="http://www.w3.org/2000/svg" xmlns:xlink="http://www.w3.org/1999/xlink" x="0px" y="0px"
	 viewBox="0 0 48 48" style="enable-background:new 0 0 48 48;" xml:space="preserve">
<style type="text/css">
	.st0{fill:url(#SVGID_1_);}
	.st1{fill:#FFCFA9;}
	.st2{fill:url(#SVGID_2_);}
	.st3{fill:url(#SVGID_3_);}
	.st4{fill:url(#SVGID_4_);}
	.st5{fill:url(#SVGID_5_);}
	.st6{fill:url(#SVGID_6_);}
	.st7{fill:url(#SVGID_7_);}
	.st8{fill:url(#SVGID_8_);}
	.st9{fill:url(#SVGID_9_);}
</style>
<linearGradient id="SVGID_1_" gradientUnits="userSpaceOnUse" x1="14.1303" y1="21.4491" x2="17.9273" y2="8.3851" gradientTransform="matrix(1 0 0 -1 0 50)">
	<stop  offset="0" style="stop-color:#0D61A9"/>
	<stop  offset="1" style="stop-color:#16528C"/>
</linearGradient>
<path class="st0" d="M17,29c-7.7,0-14,4.6-14,9.2v1c0,1,0.8,1.8,1.8,1.8h24.5c1,0,1.8-0.8,1.8-1.8v-1c0-4-4.2-9-10.4-10.1
	C19.6,28,18.1,29,17,29z"/>
<path class="st1" d="M21,30.8c0,1.5-1.6,3.2-4,3.2s-4-1.7-4-3.2c0-2.1,0-5.6,0-5.6h8C21,25.2,21,28.7,21,30.8z"/>
<linearGradient id="SVGID_2_" gradientUnits="userSpaceOnUse" x1="24.134" y1="29" x2="25.706" y2="29" gradientTransform="matrix(1 0 0 -1 0 50)">
	<stop  offset="0" style="stop-color:#C48F0C"/>
	<stop  offset="0.251" style="stop-color:#D19B16"/>
	<stop  offset="0.619" style="stop-color:#DCA51F"/>
	<stop  offset="1" style="stop-color:#E0A922"/>
</linearGradient>
<path class="st2" d="M24.6,19h-1.1v4h1.3c0.4,0,0.8-0.3,0.9-0.7l0.3-1.7C26.1,19.7,25.5,19,24.6,19z"/>
<radialGradient id="SVGID_3_" cx="77.7223" cy="-66.2426" r="9.5078" gradientTransform="matrix(0.8816 0 0 -0.8816 -51.52 -37.966)" gradientUnits="userSpaceOnUse">
	<stop  offset="0" style="stop-color:#FFCFA9"/>
	<stop  offset="0.261" style="stop-color:#FFCFA9"/>
	<stop  offset="0.639" style="stop-color:#FFCFA9"/>
	<stop  offset="1" style="stop-color:#F0B487"/>
</radialGradient>
<path class="st3" d="M17,10.9c-3.5,0-7,0.5-7,8c0,0.6,0,4.6,0,5.2c0,2.7,4.2,5.9,7,5.9s7-3.3,7-5.9c0-0.6,0-4.6,0-5.2
	C24,11.4,20.5,10.9,17,10.9z"/>
<radialGradient id="SVGID_4_" cx="69.4777" cy="-54.4121" r="25.074" gradientTransform="matrix(0.8816 0 0 -0.8816 -51.52 -37.966)" gradientUnits="userSpaceOnUse">
	<stop  offset="0" style="stop-color:#C26715"/>
	<stop  offset="0.508" style="stop-color:#B85515"/>
	<stop  offset="1" style="stop-color:#AD3F16"/>
</radialGradient>
<path class="st4" d="M17,9c-3.3,0-4,1-4,1c-2,0-4.5,2-4.5,6c0,1.4,0.5,3,1.5,6c0.5-5.7,1.5-9,3-9c1.1,0,1.6,1,4,1c2,0,2-1,4-1
	c2.6,0,3,8.1,3,9c1-3,1.5-4.7,1.5-6C25.5,12,22.4,9,17,9z"/>
<radialGradient id="SVGID_5_" cx="99.5515" cy="-55.4821" r="27.989" gradientTransform="matrix(0.8431 0 0 -0.8816 -67.9675 -37.966)" gradientUnits="userSpaceOnUse">
	<stop  offset="0" style="stop-color:#C26715"/>
	<stop  offset="0.508" style="stop-color:#B85515"/>
	<stop  offset="1" style="stop-color:#AD3F16"/>
</radialGradient>
<path class="st5" d="M17.1,8c-3.6,0-4.1,2-4.1,2c0,1,0,2,0,2s0.6,1.2,4.4,1.2c2.3,0,5.6-1.4,5.6-5.2C23,8,22.3,8,17.1,8z"/>
<radialGradient id="SVGID_6_" cx="30.789" cy="28.551" r="11.736" gradientTransform="matrix(1 0 0 -1 0 50)" gradientUnits="userSpaceOnUse">
	<stop  offset="0.376" style="stop-color:#261103"/>
	<stop  offset="0.68" style="stop-color:#431D06"/>
	<stop  offset="1" style="stop-color:#662C09"/>
</radialGradient>
<path class="st6" d="M31,10.8c-8.8,0-11,14.2-11,14.2c0,2.5,1.2,4.8,3.6,5.3c2.1,0.5,4.8,1,7.4,1s5.2-0.5,7.4-1
	c2.5-0.6,3.6-2.8,3.6-5.3C42,25.1,39.8,10.8,31,10.8z"/>
<linearGradient id="SVGID_7_" gradientUnits="userSpaceOnUse" x1="28.113" y1="21.444" x2="31.911" y2="8.38" gradientTransform="matrix(1 0 0 -1 0 50)">
	<stop  offset="0" style="stop-color:#837BFC"/>
	<stop  offset="1" style="stop-color:#6539A1"/>
</linearGradient>
<path class="st7" d="M31,29c-7.7,0-14,4.6-14,9.2v1c0,1,0.8,1.8,1.8,1.8h24.5c1,0,1.8-0.8,1.8-1.8v-1C45,33.6,38.7,29,31,29z"/>
<path class="st1" d="M35,32.8c0,1.5-1.6,3.2-4,3.2s-4-1.7-4-3.2c0-2.1,0-5.6,0-5.6h8C35,27.2,35,30.7,35,32.8z"/>
<radialGradient id="SVGID_8_" cx="-1787.3905" cy="17.2975" r="9.3805" gradientTransform="matrix(-0.9136 0 0 -0.9667 -1601.9601 37.2525)" gradientUnits="userSpaceOnUse">
	<stop  offset="0" style="stop-color:#FFCF54"/>
	<stop  offset="3.184349e-02" style="stop-color:#FFCFA9"/>
	<stop  offset="0.261" style="stop-color:#FFCFA9"/>
	<stop  offset="0.639" style="stop-color:#FFCFA9"/>
	<stop  offset="1" style="stop-color:#F0B485"/>
</radialGradient>
<path class="st8" d="M31,10.1c3.5,0,7,0.6,7,8.5c0,0.6,0,5,0,5.7c0,2.8-4.3,6.7-7,6.7s-7-3.9-7-6.7c0-0.7,0-5.1,0-5.7
	C24,10.9,27.5,10.1,31,10.1z"/>
<radialGradient id="SVGID_9_" cx="24.979" cy="42.58" r="28.154" gradientTransform="matrix(1 0 0 -1 0 50)" gradientUnits="userSpaceOnUse">
	<stop  offset="0" style="stop-color:#C26715"/>
	<stop  offset="0.508" style="stop-color:#B85515"/>
	<stop  offset="1" style="stop-color:#AD3F16"/>
</radialGradient>
<path class="st9" d="M31,7c-4.5,0-5,3-5,3c-1.8,0.3-6,0.2-6,15c0,3.5,1.6,4.6,2.7,5.1C19.7,18.5,28.4,19.9,27,12
	c3.5,10.3,15.6,3.3,12.3,18.1C41,29.4,42,27.2,42,25C42,12.9,37.5,7,31,7z"/>
</svg>
