<?xml version="1.0" encoding="utf-8"?>
<!-- Generator: Adobe Illustrator 25.0.1, SVG Export Plug-In . SVG Version: 6.00 Build 0)  -->
<svg version="1.1" id="Слой_1" xmlns="http://www.w3.org/2000/svg" xmlns:xlink="http://www.w3.org/1999/xlink" x="0px" y="0px"
	 viewBox="0 0 48 48" style="enable-background:new 0 0 48 48;" xml:space="preserve">
<style type="text/css">
	.st0{fill:url(#SVGID_1_);}
	.st1{fill:url(#SVGID_2_);}
	.st2{opacity:5.000000e-02;enable-background:new    ;}
	.st3{opacity:7.000000e-02;enable-background:new    ;}
	.st4{fill:#837BFC;}
</style>
<linearGradient id="SVGID_1_" gradientUnits="userSpaceOnUse" x1="21.5159" y1="1049.6378" x2="45.5919" y2="1085.6729" gradientTransform="matrix(1 0 0 1 0 -1032)">
	<stop  offset="0" style="stop-color:#837BFC"/>
	<stop  offset="1" style="stop-color:#6539A1"/>
</linearGradient>
<path class="st0" d="M9,26l36-14.3V38c0,1.1-0.9,2-2,2H9V26z"/>
<linearGradient id="SVGID_2_" gradientUnits="userSpaceOnUse" x1="1.4081" y1="1056.4099" x2="36.3311" y2="1078.1638" gradientTransform="matrix(1 0 0 1 0 -1032)">
	<stop  offset="0" style="stop-color:#837BFC"/>
	<stop  offset="1" style="stop-color:#6539A1"/>
</linearGradient>
<path class="st1" d="M3,11.7V38c0,1.1,0.9,2,2,2h38c0.5,0,0.9-0.2,1.3-0.5L3,11.7z"/>
<path class="st2" d="M3,11h42v1.7L27.7,26.1c-2.2,1.7-5.2,1.7-7.4,0L3,12.7V11z"/>
<path class="st3" d="M3,10.5h42v1.7L27,25.3c-1.8,1.3-4.2,1.3-5.9,0L3,12.2V10.5z"/>
<path class="st4" d="M5,8h38c1.1,0,2,0.9,2,2v1.7L26.3,24.5c-1.4,0.9-3.1,0.9-4.5,0L3,11.7V10C3,8.9,3.9,8,5,8z"/>
</svg>
