<svg xmlns="http://www.w3.org/2000/svg" viewBox="0 0 512.01 512.03"><defs><style>.cls-1{fill:#2196f3;}.cls-2{fill:#f3d55b;}.cls-3{fill:#b19046;}</style></defs><g id="Слой_2" data-name="Слой 2"><g id="Слой_1-2" data-name="Слой 1"><g id="Page-1"><g id="_015---Forex-Dollar-Euro" data-name="015---Forex-Dollar-Euro"><path id="Shape" class="cls-1" d="M423.38,79.47H397.25V240.83a143.32,143.32,0,0,0-53,0V79.47H318.16a9.37,9.37,0,0,1-6.89-15.54L364,3.2a8.83,8.83,0,0,1,13.6,0l52.7,60.73a9.37,9.37,0,0,1-6.89,15.54Z"/><path id="Shape-2" data-name="Shape" class="cls-1" d="M200.75,448.11l-52.7,60.73a8.83,8.83,0,0,1-13.59,0l-52.7-60.73a9.37,9.37,0,0,1,6.88-15.54h26.13V271.2a143,143,0,0,0,53,0V432.57h26.13a9.37,9.37,0,0,1,6.88,15.54Z"/><path id="Shape-3" data-name="Shape" class="cls-2" d="M512,370.78A141.24,141.24,0,1,1,344.29,232a142.89,142.89,0,0,1,53,0A141.23,141.23,0,0,1,512,370.78Z"/><path id="Shape-4" data-name="Shape" class="cls-2" d="M282.5,141.26A141.26,141.26,0,0,1,167.74,280a143.37,143.37,0,0,1-53,0A141.24,141.24,0,1,1,282.5,141.26Z"/><path id="Shape-5" data-name="Shape" class="cls-3" d="M176.56,106a8.83,8.83,0,0,0,17.66,0c0-21.82-19.13-40-44.14-43.48V44.16a8.83,8.83,0,1,0-17.65,0V62.47C107.42,66,88.29,84.13,88.29,106s19.13,40,44.14,43.47v52.69c-15.19-3-26.49-13.24-26.49-25.54a8.83,8.83,0,1,0-17.65,0c0,21.82,19.13,40,44.14,43.47v18.32a8.83,8.83,0,1,0,17.65,0V220c25-3.53,44.14-21.65,44.14-43.47s-19.13-39.95-44.14-43.48V80.41C165.26,83.37,176.56,93.64,176.56,106Zm-70.62,0c0-12.31,11.3-22.58,26.49-25.54v51.08C117.24,128.53,105.94,118.25,105.94,106Zm70.62,70.62c0,12.3-11.3,22.58-26.48,25.54V151C165.26,154,176.56,164.26,176.56,176.57Z"/><path id="Shape-6" data-name="Shape" class="cls-3" d="M411.72,409.88a49.94,49.94,0,0,1-41,22.69A53.07,53.07,0,0,1,323,397.26h47.78a8.83,8.83,0,1,0,0-17.66H318.41a65.2,65.2,0,0,1,0-17.65h52.36a8.83,8.83,0,1,0,0-17.66H323A53.09,53.09,0,0,1,370.77,309a49.94,49.94,0,0,1,41,22.69,8.83,8.83,0,1,0,14.5-10.06,67.29,67.29,0,0,0-55.45-30.28,71.79,71.79,0,0,0-66.5,53H282.5a8.83,8.83,0,0,0,0,17.66h18.11c-.28,2.9-.46,5.84-.46,8.83s.18,5.92.46,8.82H282.5a8.83,8.83,0,0,0,0,17.66h21.77a71.79,71.79,0,0,0,66.5,53A67.28,67.28,0,0,0,426.22,420a8.83,8.83,0,1,0-14.5-10.07Z"/></g></g></g></g></svg>