<svg id="Capa_1" enable-background="new 0 0 512 512" height="512" viewBox="0 0 512 512" width="512" xmlns="http://www.w3.org/2000/svg"><g><path d="m167.091 29.721v80.35h30v-50.35h58.909l19.626-14.895-19.626-15.105z" fill="#fff5f5"/><path d="m256 29.721v30h58.909v50.35h30v-80.35z" fill="#ebe1dd"/><g><path d="m0 236.811v245.468h256l35.937-76.95-35.937-168.518z" fill="#80d4ff"/><path d="m256 236.811h256v245.468h-256z" fill="#6daafc"/></g><g><g><path d="m114.71 344.011h56.641v80.34h-56.641z" fill="#ffea80"/></g><g><path d="m341.504 344.011h56.641v80.34h-56.641z" fill="#fc6"/></g></g><g><path d="m0 95.071v139.305c0 68.724 55.911 124.635 124.634 124.635h131.366l10.551-132.498-10.551-131.442z" fill="#6daafc"/><path d="m256 95.071v263.939h131.366c68.723.001 124.634-55.91 124.634-124.634v-139.305z" fill="#6680ff"/></g><g><path d="m241 211.514h-36.799v30h36.799v36.798h15l10.551-51.799-10.551-51.799h-15z" fill="#fff5f5"/></g><path d="m271 278.312v-36.798h36.799v-30h-36.799v-36.8h-15v103.598z" fill="#ebe1dd"/></g></svg>