<svg xmlns="http://www.w3.org/2000/svg" viewBox="0 0 512 288" width="90" height="90">
<defs><style>.cls-1{fill:#ffc107;}.cls-2{fill:#2196f3;}.cls-3{fill:#fafafa;}.cls-4{fill:#455a64;}</style></defs><g id="Слой_2" data-name="Слой 2"><g id="Capa_1" data-name="Capa 1"><path class="cls-1" d="M128,48a16,16,0,0,0-16-16H16a16,16,0,0,0,0,32h96A16,16,0,0,0,128,48Z"/><path class="cls-1" d="M112,96H48a16,16,0,0,0,0,32h64a16,16,0,0,0,0-32Z"/><path class="cls-1" d="M112,160H80a16,16,0,0,0,0,32h32a16,16,0,0,0,0-32Z"/><path class="cls-2" d="M509.73,151.78l-48-80A16,16,0,0,0,448,64H336a16,16,0,0,0-16,16V240a16,16,0,0,0,16,16H496a16,16,0,0,0,16-16V160A15.78,15.78,0,0,0,509.73,151.78Z"/><polygon class="cls-3" points="384 96 438.94 96 477.34 160 384 160 384 96"/><path class="cls-1" d="M336,0H112A16,16,0,0,0,96,16V240a16,16,0,0,0,16,16H352V16A16,16,0,0,0,336,0Z"/><circle class="cls-3" cx="432" cy="240" r="32"/><path class="cls-4" d="M432,288a48,48,0,1,1,48-48A48.06,48.06,0,0,1,432,288Zm0-64a16,16,0,1,0,16,16A16,16,0,0,0,432,224Z"/><path class="cls-2" d="M352,256H112a16,16,0,0,1-16-16V192H352Z"/><circle class="cls-3" cx="208" cy="240" r="32"/><path class="cls-4" d="M208,288a48,48,0,1,1,48-48A48.06,48.06,0,0,1,208,288Zm0-64a16,16,0,1,0,16,16A16,16,0,0,0,208,224Z"/></g></g></svg>