<?xml version="1.0" encoding="utf-8"?>
<!-- Generator: Adobe Illustrator 25.0.1, SVG Export Plug-In . SVG Version: 6.00 Build 0)  -->
<svg version="1.1" id="Capa_1" xmlns="http://www.w3.org/2000/svg" xmlns:xlink="http://www.w3.org/1999/xlink" x="0px" y="0px"
	 viewBox="0 0 512 512" style="enable-background:new 0 0 512 512;" xml:space="preserve">
<style type="text/css">
	.st0{fill:#D1E8FF;}
	.st1{fill:#F5F5FF;}
	.st2{fill:#0093C4;}
	.st3{fill:#00C7FF;}
	.st4{fill:#04F6FF;}
</style>
<path class="st0" d="M448,288.66v-65.33h-33.59c-4.2-20.39-12.25-39.38-23.36-56.2l23.81-23.81l-46.19-46.19l-23.81,23.81
	c-16.82-11.1-35.81-19.16-56.2-23.35V64H256l-15.01,192L256,448h32.66v-33.59c20.39-4.2,39.38-12.25,56.2-23.36l23.81,23.81
	l46.19-46.19l-23.81-23.81c11.1-16.82,19.16-35.81,23.36-56.2L448,288.66L448,288.66z"/>
<path class="st1" d="M223.34,64v33.59c-20.39,4.2-39.38,12.25-56.2,23.35l-23.81-23.81l-46.19,46.19l23.81,23.81
	c-11.1,16.82-19.16,35.81-23.35,56.2H64v65.33h33.59c4.2,20.39,12.25,39.38,23.35,56.2l-23.81,23.81l46.19,46.19l23.81-23.81
	c16.82,11.1,35.81,19.16,56.2,23.36V448H256V64H223.34z"/>
<path class="st2" d="M256,370.46c63.11,0,114.46-51.35,114.46-114.46l-78.8-15.01L256,370.46z"/>
<path class="st3" d="M220.34,240.99L141.54,256c0,63.11,51.35,114.46,114.46,114.46L220.34,240.99z"/>
<path class="st4" d="M256,141.54c-63.11,0-114.45,51.35-114.45,114.46h63.79L256,141.54z"/>
<g>
	<path class="st3" d="M240.99,240.99L256,370.46c23.92,0,50.67-51.35,50.67-114.46L240.99,240.99z"/>
	<path class="st3" d="M256,141.54L306.67,256h63.79C370.46,192.89,319.11,141.54,256,141.54z"/>
</g>
<path class="st4" d="M306.67,256c0-63.11-26.75-114.46-50.67-114.46l-15.01,65.96L256,256H306.67z"/>
<path class="st2" d="M205.33,256c0,63.11,26.75,114.46,50.67,114.46V256l-24.25-15.01L205.33,256z"/>
<path class="st3" d="M256,141.54C256,141.54,256,141.54,256,141.54c-23.92,0-50.67,51.35-50.67,114.46H256V141.54z"/>
</svg>
