<?xml version="1.0" encoding="utf-8"?>
<!-- Generator: Adobe Illustrator 25.0.1, SVG Export Plug-In . SVG Version: 6.00 Build 0)  -->
<svg version="1.1" id="Capa_1" xmlns="http://www.w3.org/2000/svg" xmlns:xlink="http://www.w3.org/1999/xlink" x="0px" y="0px"
	 viewBox="0 0 512 512" style="enable-background:new 0 0 512 512;" xml:space="preserve">
<style type="text/css">
	.st0{fill:#D1E8FF;}
	.st1{fill:#F5F5FF;}
	.st2{fill:#6283A3;}
	.st3{fill:#9ABADB;}
	.st4{fill:#FF0099;}
	.st5{fill:#FFED94;}
	.st6{fill:#0093C4;}
	.st7{fill:#FF68A5;}
	.st8{fill:#FF8E00;}
	.st9{fill:#FFCD00;}
</style>
<polygon class="st0" points="403.33,200.44 244.48,188.92 256,384.98 403.33,384.98 "/>
<polygon class="st1" points="108.67,200.44 108.67,384.98 256,384.98 256,188.92 "/>
<polygon class="st2" points="403.33,127.02 256,127.02 244.48,163.73 256,200.44 403.33,200.44 "/>
<rect x="108.67" y="127.02" class="st3" width="147.33" height="73.42"/>
<rect x="136.2" y="155.1" class="st4" width="18.35" height="17.27"/>
<rect x="172.91" y="155.1" class="st5" width="18.35" height="17.27"/>
<rect x="209.62" y="155.1" class="st6" width="18.35" height="17.27"/>
<polygon class="st4" points="256.02,348.3 280.49,348.3 280.49,292.71 244.49,281.19 "/>
<polygon class="st7" points="231.54,292.71 231.54,348.3 256.02,348.3 256.02,281.19 "/>
<polygon class="st4" points="317.2,273.83 317.2,348.3 366.14,348.3 366.14,273.83 341.67,262.31 "/>
<g>
	<rect x="317.2" y="237.12" class="st8" width="48.95" height="36.71"/>
	<polygon class="st8" points="256.02,237.12 244.49,264.92 256.02,292.71 280.49,292.71 280.49,237.12 	"/>
</g>
<polygon class="st7" points="145.86,348.3 194.8,348.3 194.8,311.59 170.33,300.07 145.86,311.59 "/>
<g>
	<rect x="145.86" y="237.12" class="st9" width="48.95" height="74.47"/>
	<rect x="231.54" y="237.12" class="st9" width="24.47" height="55.59"/>
</g>
</svg>
