<?xml version="1.0" encoding="utf-8"?>
<!-- Generator: Adobe Illustrator 25.0.1, SVG Export Plug-In . SVG Version: 6.00 Build 0)  -->
<svg version="1.1" id="Слой_1" xmlns="http://www.w3.org/2000/svg" xmlns:xlink="http://www.w3.org/1999/xlink" x="0px" y="0px"
	 viewBox="0 0 48 48" style="enable-background:new 0 0 48 48;" xml:space="preserve">
<style type="text/css">
	.st0{fill:#6539A1;}
	.st1{fill:#837BFC;}
</style>
<path class="st0" d="M41.1,7.9c0,0-3.7-0.3-6.7,1.1s-8.9,5.5-7.9,7c1-0.7,2.1-0.2,2.6,0.3c0.4,0.4,2,2.1,3,3.2
	c0.6,0.6,1.6,0.8,2.3,0.4l7.4-4.1c0.8-0.4,1.2-1.4,0.9-2.3L41.1,7.9z"/>
<path class="st0" d="M7.9,41.1c0,0-0.3-3.7,1.1-6.7s5.5-8.9,7-7.9c-0.7,1-0.2,2.1,0.3,2.6c0.4,0.4,2.1,2,3.2,3
	c0.6,0.6,0.8,1.6,0.4,2.3L15.9,42c-0.4,0.8-1.4,1.2-2.3,0.9L7.9,41.1z"/>
<path class="st1" d="M21,21c-5.9,5.9-10.3,12.8-13.1,20.1l-1.8-1.1c-0.9-0.5-1.3-1.6-0.9-2.6C8,30.4,12.2,23.7,18,18
	S30.4,8,37.5,5.1c1-0.4,2.1,0,2.6,0.9l1.1,1.8C33.8,10.7,26.9,15.1,21,21z"/>
</svg>
