<svg id="Capa_1" enable-background="new 0 0 512 512" height="512" viewBox="0 0 512 512" width="512" xmlns="http://www.w3.org/2000/svg"><g><path d="m219.43 0h73.14v83.55h-73.14z" fill="#4abbef"/><path d="m256 0h36.57v83.55h-36.57z" fill="#009be5"/><path d="m443.14 112.07v124.5h-49.43v-30h19.43v-82.07l-25.64-25.64h-263l-25.64 25.64v82.07h19.43v30h-49.43v-124.5l43.21-43.21h287.86z" fill="#39689e"/><path d="m443.14 112.07v124.5h-49.43v-30h19.43v-82.07l-25.64-25.64h-131.5v-30h143.93z" fill="#224370"/><path d="m0 482h512v30h-512z" fill="#39689e"/><path d="m256 482h256v30h-256z" fill="#224370"/><path d="m365.71 146.29v219.42h-219.42v-219.42h73.14l36.57 14 36.57-14z" fill="#ffda2d"/><path d="m365.71 146.29v219.42h-109.71v-205.42l36.57-14z" fill="#fcbe00"/><path d="m292.57 146.29v94.25l-36.57-21.11-36.57 21.11v-94.25z" fill="#ffa001"/><path d="m292.57 146.29v94.25l-36.57-21.11v-73.14z" fill="#f87f02"/><path d="m512 374.29v38.85l-14 19.29h-484l-14-19.29v-38.85l14-15h484z" fill="#4abbef"/><path d="m512 374.29v38.85l-14 19.29h-242v-73.14h242z" fill="#009be5"/><path d="m0 413.14h512v30h-512z" fill="#39689e"/><path d="m256 413.14h256v30h-256z" fill="#224370"/><path d="m0 344.29h512v30h-512z" fill="#39689e"/><path d="m256 344.29h256v30h-256z" fill="#224370"/><ellipse cx="256" cy="462.57" fill="#4abbef" rx="34.43" ry="34.43" transform="matrix(.383 -.924 .924 .383 -269.326 522.065)"/><path d="m290.43 462.57c0 19.02-15.42 34.43-34.43 34.43v-68.86c19.01 0 34.43 15.42 34.43 34.43z" fill="#009be5"/><circle cx="97.134" cy="462.571" fill="#4abbef" r="34.429"/><circle cx="414.866" cy="462.571" fill="#009be5" r="34.429"/></g></svg>