<svg width="0" height="0" class="hidden">
  <symbol xmlns="http://www.w3.org/2000/svg" viewBox="0 0 48 48" id="facebook">
    <path d="M42 11.5v25c0 3.03-2.47 5.5-5.5 5.5H31V28h3.62c.51 0 .94-.38 1-.88l.37-3a.968.968 0 00-.24-.78A.98.98 0 0035 23h-4v-3.5c0-1.1.9-2 2-2h2c.55 0 1-.45 1-1v-3.38c0-.51-.4-.94-.91-.99-.06-.01-1.47-.13-3.26-.13-4.4 0-6.83 2.62-6.83 7.37V23h-4c-.55 0-1 .45-1 1v3c0 .55.45 1 1 1h4v14H11.5A5.51 5.51 0 016 36.5v-25C6 8.47 8.47 6 11.5 6h25c3.03 0 5.5 2.47 5.5 5.5z"></path>
  </symbol>
  <symbol xmlns="http://www.w3.org/2000/svg" viewBox="0 0 48 48" id="linkedin">
    <path d="M36.5 6h-25A5.507 5.507 0 006 11.5v25c0 3.032 2.468 5.5 5.5 5.5h25c3.032 0 5.5-2.468 5.5-5.5v-25C42 8.468 39.532 6 36.5 6zM18 34a1 1 0 01-1 1h-3a1 1 0 01-1-1V21a1 1 0 011-1h3a1 1 0 011 1v13zm-2.5-16a2.5 2.5 0 110-5 2.5 2.5 0 010 5zM35 34a1 1 0 01-1 1h-3a1 1 0 01-1-1v-7.5c0-1.379-1.121-2.5-2.5-2.5S25 25.121 25 26.5V34a1 1 0 01-1 1h-3a1 1 0 01-1-1V21a1 1 0 011-1h3a1 1 0 011 1v.541A5.965 5.965 0 0129 20c3.309 0 6 2.691 6 6v8z"></path>
  </symbol>
  <symbol xmlns="http://www.w3.org/2000/svg" viewBox="0 0 50 50" id="telegram">
    <path d="M46.137 6.552c-.75-.636-1.928-.727-3.146-.238h-.002c-1.281.514-36.261 15.518-37.685 16.131-.259.09-2.521.934-2.288 2.814.208 1.695 2.026 2.397 2.248 2.478l8.893 3.045c.59 1.964 2.765 9.21 3.246 10.758.3.965.789 2.233 1.646 2.494.752.29 1.5.025 1.984-.355l5.437-5.043 8.777 6.845.209.125c.596.264 1.167.396 1.712.396.421 0 .825-.079 1.211-.237 1.315-.54 1.841-1.793 1.896-1.935l6.556-34.077c.4-1.82-.156-2.746-.694-3.201zM22 32l-3 8-3-10 23-17-17 19z"></path>
  </symbol>
</svg>